<svg width="17" height="16" viewBox="0 0 17 16" fill="none" xmlns="http://www.w3.org/2000/svg">
<path d="M9.39973 0.516875L11.2922 4.32766C11.4238 4.5927 11.6782 4.77635 11.9726 4.81879L16.2044 5.42992C16.9457 5.53705 17.2415 6.44209 16.7053 6.9614L13.6431 9.92766C13.4303 10.1339 13.333 10.4313 13.3834 10.7224L14.1062 14.911C14.2329 15.6445 13.458 16.2038 12.7951 15.8577L9.01018 13.8804C8.74698 13.743 8.43233 13.743 8.16913 13.8804L4.38423 15.8577C3.72133 16.2042 2.94643 15.6445 3.07313 14.911L3.79588 10.7224C3.84628 10.4313 3.74898 10.1339 3.53618 9.92766L0.474032 6.9614C-0.0621679 6.44174 0.233582 5.5367 0.974882 5.42992L5.20673 4.81879C5.50108 4.77635 5.75553 4.5927 5.88713 4.32766L7.77958 0.516875C8.11068 -0.150604 9.06828 -0.150604 9.39973 0.516875Z" fill="#ED8A19"/>
</svg>
